<?xml version="1.0" encoding="UTF-8" standalone="no"?>
<!-- Created with Inkscape (http://www.inkscape.org/) -->

<svg
   width="1024"
   height="1024"
   viewBox="0 0 270.93333 270.93333"
   version="1.1"
   id="svg4705"
   inkscape:version="1.2.2 (732a01da63, 2022-12-09)"
   sodipodi:docname="anki-template-file-icon.svg"
   inkscape:export-filename="anki-editor-icon.png"
   inkscape:export-xdpi="24"
   inkscape:export-ydpi="24"
   xmlns:inkscape="http://www.inkscape.org/namespaces/inkscape"
   xmlns:sodipodi="http://sodipodi.sourceforge.net/DTD/sodipodi-0.dtd"
   xmlns="http://www.w3.org/2000/svg"
   xmlns:svg="http://www.w3.org/2000/svg"
   xmlns:rdf="http://www.w3.org/1999/02/22-rdf-syntax-ns#"
   xmlns:cc="http://creativecommons.org/ns#">
  <sodipodi:namedview
     id="namedview4707"
     pagecolor="#ffffff"
     bordercolor="#ffffff"
     borderopacity="1"
     inkscape:showpageshadow="false"
     inkscape:pageopacity="0"
     inkscape:pagecheckerboard="true"
     inkscape:deskcolor="#d1d1d1"
     inkscape:document-units="px"
     showgrid="false"
     inkscape:zoom="0.70710678"
     inkscape:cx="619.42554"
     inkscape:cy="544.47222"
     inkscape:window-width="1920"
     inkscape:window-height="1017"
     inkscape:window-x="4472"
     inkscape:window-y="238"
     inkscape:window-maximized="1"
     inkscape:current-layer="text13645"
     showborder="true"
     borderlayer="true"
     shape-rendering="auto" />
  <defs
     id="defs4702">
    <inkscape:path-effect
       effect="fillet_chamfer"
       id="path-effect22767"
       is_visible="true"
       lpeversion="1"
       nodesatellites_param="F,0,0,1,0,34.38848,0,1 @ F,0,0,1,0,100,0,1 @ F,0,0,1,0,100,0,1 @ F,0,0,1,0,100,0,1"
       unit="px"
       method="auto"
       mode="F"
       radius="100"
       chamfer_steps="1"
       flexible="false"
       use_knot_distance="true"
       apply_no_radius="true"
       apply_with_radius="true"
       only_selected="false"
       hide_knots="false" />
    <linearGradient
       id="linearGradient4825">
      <stop
         id="stop4827"
         offset="0"
         style="stop-color:#0084dd;stop-opacity:1" />
      <stop
         id="stop4829"
         offset="1"
         style="stop-color:white;stop-opacity:1" />
    </linearGradient>
  </defs>
  <g
     inkscape:label="Layer 1"
     inkscape:groupmode="layer"
     id="layer1"
     style="display:inline;stroke-width:4.8895;stroke-dasharray:none">
    <g
       aria-label="{{ }}"
       id="text13645"
       style="font-size:158.75px;line-height:1.25;letter-spacing:-37.0417px;word-spacing:0px;fill:#e8a923;stroke-width:1.29368"
       inkscape:label="Double Curly Braces">
      <path
         d="m 212.25207,56.875894 q 17.61212,0 26.24885,8.467372 8.63671,8.382697 8.63671,26.756893 v 14.225181 q 0,8.7214 3.81032,13.12443 3.89499,4.31836 12.95508,4.31836 h 5.41912 v 16.00332 h -5.41912 q -4.57238,0 -7.78999,1.01609 -3.21759,0.93141 -5.24976,2.96358 -1.9475,2.03217 -2.87891,5.24977 -0.84674,3.13293 -0.84674,7.53596 v 22.26919 q 0,8.7214 -2.03216,15.24127 -1.9475,6.60455 -6.18119,11.00759 -4.23368,4.40303 -10.83824,6.60454 -6.60454,2.2862 -15.83397,2.2862 h -7.11259 v -15.91867 h 5.41911 q 4.06434,0 7.28194,-0.93141 3.30227,-0.93141 5.67313,-3.2176 2.37087,-2.20152 3.64097,-5.84249 1.27011,-3.55629 1.27011,-8.89073 v -22.01517 q 0,-6.35053 1.01609,-10.83824 1.10076,-4.57238 3.2176,-7.53595 2.20152,-3.04826 5.58846,-4.65706 3.38695,-1.6088 7.95933,-2.28619 -9.06009,-1.10075 -13.46312,-7.11259 -4.31836,-6.09651 -4.31836,-18.62822 V 91.930812 q 0,-5.503792 -1.27011,-9.144761 -1.2701,-3.725644 -3.64097,-5.92716 -2.37086,-2.201517 -5.67313,-3.132928 -3.2176,-0.931411 -7.28194,-0.931411 h -5.41911 V 56.875894 Z"
         style="font-weight:bold;font-family:Consolas;-inkscape-font-specification:Consolas;text-align:center;text-anchor:middle;stroke-width:1.41316;fill:#ffd700;fill-opacity:1"
         id="path347"
         inkscape:label="Curly Brace 4" />
      <path
         d="m 157.37224,56.875894 q 17.61214,0 26.24885,8.467372 8.63673,8.382697 8.63673,26.756893 v 14.225181 q 0,8.7214 3.81032,13.12443 3.89498,4.31836 12.95507,4.31836 h 5.41912 v 16.00332 h -5.41912 q -4.57238,0 -7.78998,1.01609 -3.2176,0.93141 -5.24977,2.96358 -1.94749,2.03217 -2.8789,5.24977 -0.84674,3.13293 -0.84674,7.53596 v 22.26919 q 0,8.7214 -2.03217,15.24127 -1.9475,6.60455 -6.18118,11.00759 -4.23369,4.40303 -10.83824,6.60454 -6.60455,2.2862 -15.83399,2.2862 h -7.11259 v -15.91867 h 5.41912 q 4.06434,0 7.28194,-0.93141 3.30227,-0.93141 5.67314,-3.2176 2.37086,-2.20152 3.64097,-5.84249 1.2701,-3.55629 1.2701,-8.89073 v -22.01517 q 0,-6.35053 1.01609,-10.83824 1.10076,-4.57238 3.2176,-7.53595 2.20151,-3.04826 5.58847,-4.65706 3.38695,-1.6088 7.95933,-2.28619 -9.06009,-1.10075 -13.46312,-7.11259 -4.31837,-6.09651 -4.31837,-18.62822 V 91.930812 q 0,-5.503792 -1.2701,-9.144761 -1.27011,-3.725644 -3.64097,-5.92716 -2.37087,-2.201517 -5.67314,-3.132928 -3.2176,-0.931411 -7.28194,-0.931411 h -5.41912 V 56.875894 Z"
         style="font-weight:bold;font-size:158.75px;line-height:1.25;font-family:Consolas;-inkscape-font-specification:Consolas;text-align:center;letter-spacing:-37.0417px;word-spacing:0px;text-anchor:middle;display:inline;fill:#ffd700;stroke-width:1.41316;stroke-dasharray:none;fill-opacity:1"
         id="path345"
         inkscape:label="Curly Brace 3" />
      <path
         d="m 113.55603,214.05744 q -17.539928,0 -26.182794,-8.47341 -8.642866,-8.38866 -8.642866,-26.6912 V 157.3704 q 0,-8.7276 -3.897763,-13.13377 -3.897764,-4.40617 -12.9643,-4.40617 h -5.338241 v -16.01472 h 5.338241 q 4.575636,0 7.795527,-0.93208 3.219891,-1.0168 5.253507,-3.05041 2.033615,-2.03362 2.880955,-5.16878 0.932074,-3.21989 0.932074,-7.62606 V 92.125231 q 0,-8.7276 1.948882,-15.33685 2.033615,-6.609251 6.270315,-11.015419 4.236698,-4.406167 10.761215,-6.60925 6.609258,-2.287818 15.845248,-2.287818 h 7.11765 v 15.929989 h -5.33823 q -4.06723,0 -7.37186,1.016808 -3.21988,0.932074 -5.59244,3.135157 -2.372553,2.203084 -3.643563,5.846645 -1.271007,3.558827 -1.271007,8.897069 v 14.828448 q 0,6.35505 -1.101541,10.84594 -1.016808,4.49091 -3.219892,7.54134 -2.203084,2.96568 -5.592443,4.66036 -3.38936,1.60995 -7.964995,2.28782 9.066537,1.0168 13.472705,7.11765 4.406166,6.01612 4.406166,18.55675 v 21.52243 q 0,5.50771 1.271007,9.15127 1.27101,3.64356 3.643563,5.84664 2.37256,2.20308 5.59244,3.13516 3.30463,0.93207 7.37186,0.93207 h 5.33823 v 15.93 z"
         style="font-weight:bold;font-size:158.75px;line-height:1.25;font-family:Consolas;-inkscape-font-specification:Consolas;text-align:center;letter-spacing:-37.0417px;word-spacing:0px;text-anchor:middle;display:inline;fill:#ffd700;stroke-width:1.41417;stroke-dasharray:none;fill-opacity:1"
         id="path343"
         inkscape:label="Curly Brace 2" />
      <path
         d="m 58.637153,214.05744 q -17.539934,0 -26.182801,-8.47341 -8.642866,-8.38866 -8.642866,-26.6912 V 157.3704 q 0,-8.7276 -3.897764,-13.13377 -3.897762,-4.40617 -12.9642984,-4.40617 h -5.338241 v -16.01472 h 5.338241 q 4.5756344,0 7.7955264,-0.93208 3.219891,-1.0168 5.253507,-3.05041 2.033616,-2.03362 2.880955,-5.16878 0.932074,-3.21989 0.932074,-7.62606 V 92.125231 q 0,-8.7276 1.948881,-15.33685 2.033616,-6.609251 6.270315,-11.015419 4.2367,-4.406167 10.761216,-6.60925 6.609251,-2.287818 15.845255,-2.287818 h 7.117654 v 15.929989 h -5.338241 q -4.067231,0 -7.371856,1.016808 -3.219892,0.932074 -5.592443,3.135157 -2.372551,2.203084 -3.643561,5.846645 -1.271009,3.558827 -1.271009,8.897069 v 14.828448 q 0,6.35505 -1.101543,10.84594 -1.016808,4.49091 -3.219892,7.54134 -2.203082,2.96568 -5.592442,4.66036 -3.389359,1.60995 -7.964994,2.28782 9.066536,1.0168 13.472703,7.11765 4.406168,6.01612 4.406168,18.55675 v 21.52243 q 0,5.50771 1.271009,9.15127 1.27101,3.64356 3.643561,5.84664 2.372551,2.20308 5.592443,3.13516 3.304625,0.93207 7.371856,0.93207 h 5.338241 v 15.93 z"
         style="font-weight:bold;font-size:158.75px;line-height:1.25;font-family:Consolas;-inkscape-font-specification:Consolas;text-align:center;letter-spacing:-37.0417px;word-spacing:0px;text-anchor:middle;display:inline;fill:#ffd700;stroke-width:1.41417;stroke-dasharray:none;fill-opacity:1"
         id="path341"
         inkscape:label="Curly Brace 1" />
    </g>
  </g>
  <metadata
     id="metadata4709">
    <rdf:RDF>
      <cc:Work
         rdf:about="" />
    </rdf:RDF>
  </metadata>
</svg>
